<svg xmlns="http://www.w3.org/2000/svg" width="512" height="512" viewBox="0 0 512 512">  
  <g clip-path="url(#roundedCorners)">
    <rect width="100%" height="100%" fill="#007bff"/>
    <g transform="scale(13) translate(12 12)" fill="#ffffff">
      <path d="M9.5 0a.5.5 0 0 1 .5.5.5.5 0 0 0 .5.5.5.5 0 0 1 .5.5V2a.5.5 0 0 1-.5.5h-5A.5.5 0 0 1 5 2v-.5a.5.5 0 0 1 .5-.5.5.5 0 0 0 .5-.5.5.5 0 0 1 .5-.5z"/>
      <path d="M3 2.5a.5.5 0 0 1 .5-.5H4a.5.5 0 0 0 0-1h-.5A1.5 1.5 0 0 0 2 2.5v12A1.5 1.5 0 0 0 3.5 16h9a1.5 1.5 0 0 0 1.5-1.5v-12A1.5 1.5 0 0 0 12.5 1H12a.5.5 0 0 0 0 1h.5a.5.5 0 0 1 .5.5v12a.5.5 0 0 1-.5.5h-9a.5.5 0 0 1-.5-.5z"/>
      <path d="M9.979 5.356a.5.5 0 0 0-.968.04L7.92 10.49l-.94-3.135a.5.5 0 0 0-.926-.08L4.69 10H4.5a.5.5 0 0 0 0 1H5a.5.5 0 0 0 .447-.276l.936-1.873.941 3.136a.5.5 0 0 0 .951.085l1.507-5.17.904 2.263a.5.5 0 0 0 .446.276H12a.5.5 0 0 0 0-1h-1.217z"/>
    </g>
  </g>
</svg>
